<svg xmlns="http://www.w3.org/2000/svg" xmlns:xlink="http://www.w3.org/1999/xlink" width="657.797" height="144.465" viewBox="0 0 657.797 144.465"><defs><path id="a" d="M.896 0H.714L.672.309.664.382.657.469A1 1 0 0 0 .631.356L.624.335.527 0h-.13L.3.335.294.356a1 1 0 0 0-.027.113 2 2 0 0 0-.016-.16L.209 0H.028l.11.715h.193L.439.346.443.334A1 1 0 0 0 .462.249q.002.02.007.042l.015.056.109.368h.193z"/><path id="b" d="M.265.267h.194L.386.503.377.538.362.599.349.549.337.503zM-.008 0l.247.715h.244L.73 0H.536L.5.128H.223L.186 0z"/><path id="c" d="M.076 0v.715H.28A1 1 0 0 0 .447.704.2.2 0 0 0 .528.667.2.2 0 0 0 .587.593.24.24 0 0 0 .608.492q0-.083-.041-.135A.2.2 0 0 0 .448.288L.643 0h-.22L.259.28V0zm.183.377h.036q.063 0 .092.022.029.02.029.067 0 .054-.027.076Q.362.565.298.565H.259z"/><path id="d" d="M.076 0v.715h.193V.39l.226.325h.227L.458.366.745 0H.502L.269.321V0z"/><path id="e" d="M.076 0v.715h.438V.558H.266V.434H.5V.281H.266V.16h.248V0z"/><path id="f" d="M.179 0v.546h-.16v.169h.515V.546h-.16V0z"/><path id="g" d="M.219.246q0-.057.03-.091A.1.1 0 0 1 .332.122q.054 0 .084.033a.13.13 0 0 1 .03.091q0 .057-.03.091A.11.11 0 0 1 .332.37.1.1 0 0 1 .249.337a.13.13 0 0 1-.03-.091M.065.757h.166V.499L.23.447.226.411a.2.2 0 0 0 .07.076q.039.022.102.022a.2.2 0 0 0 .16-.072.3.3 0 0 0 .061-.191.28.28 0 0 0-.062-.193.2.2 0 0 0-.165-.072A.2.2 0 0 0 .3.006.2.2 0 0 0 .225.08V0h-.16z"/><path id="h" d="m.037-.218.139.293-.199.418H.17L.239.315.254.273.262.237l.009.037.014.041.07.178h.186l-.31-.711z"/><path id="i" d="M.071 0v.716h.217L.417.228l.126.488h.218V0H.627v.564L.485 0H.346l-.14.564L.205 0z"/><path id="j" d="M.072.589v.127h.137V.589zm0-.589v.519h.137V0z"/><path id="k" d="M.544 0H.407v.265a.4.4 0 0 1-.009.108.07.07 0 0 1-.029.038.08.08 0 0 1-.048.014.1.1 0 0 1-.064-.019.1.1 0 0 1-.039-.052.4.4 0 0 1-.011-.119V0H.07v.519h.127V.443A.21.21 0 0 0 .369.53Q.414.53.452.514A.13.13 0 0 0 .509.472.2.2 0 0 0 .536.414.4.4 0 0 0 .544.322z"/><path id="l" d="M.324.151.37.154l.027.001h.152L.524 0H.002L.3.341a1 1 0 0 1 .073.097q.02.035.02.064a.07.07 0 0 1-.021.053.08.08 0 0 1-.055.02.08.08 0 0 1-.068-.03.13.13 0 0 1-.026-.083H.055a.3.3 0 0 0 .08.192.27.27 0 0 0 .191.068q.11 0 .178-.06A.2.2 0 0 0 .572.507.26.26 0 0 0 .537.378a.6.6 0 0 0-.119-.14z"/><path id="m" d="m.327.299.041.22q.004.022.016.07l.002.007a.4.4 0 0 0-.054-.08L.161.299zM.28 0l.025.162h-.306l.022.137.324.409h.208L.488.299h.093L.56.162H.466L.441 0z"/><path id="n" d="m.005 0 .121.757h.171L.253.491A1 1 0 0 0 .238.416a.3.3 0 0 0 .08.071.2.2 0 0 0 .088.022.17.17 0 0 0 .119-.041.16.16 0 0 0 .042-.116A1 1 0 0 0 .558.268L.557.259.516 0H.342l.041.261.003.022.001.019A.07.07 0 0 1 .37.35Q.353.368.32.367A.09.09 0 0 1 .249.334.2.2 0 0 1 .212.23L.177 0z"/></defs><path fill="#1e2b5c" d="M342.46 14.35h28.526l3.547 38.885 18.248-38.886h28.414l-12.067 63.907h-17.703l9.198-48.718-22.86 42.285h-16.04l-4.428-42.285-9.2 48.718h-17.703Zm85.903 0h57.902l-2.578 13.655h-36.19l-1.92 10.176h33.548l-2.46 13.031h-33.549l-2.376 12.584h37.265l-2.73 14.46h-58.978Zm52.255 63.906 12.066-63.907h36.06c6.683 0 11.703.521 15.025 1.577 3.34 1.042 5.825 2.99 7.46 5.817 1.631 2.841 2.053 6.307 1.283 10.383-.668 3.54-2.078 6.605-4.227 9.179-2.135 2.588-4.81 4.67-8.032 6.277-2.033 1.011-4.736 1.86-8.074 2.529 2.427.789 4.156 1.562 5.18 2.35.684.521 1.628 1.652 2.82 3.362 1.178 1.711 1.939 3.035 2.267 3.972l1.626 4.272c-5.968 4.724-11.59 9.454-16.851 14.189h-2.199l-7.878-19.487c-.99-2.53-1.984-4.165-2.982-4.924-1.38-.982-3.064-1.473-5.037-1.473h-1.906l-4.887 25.884Zm28.876-37.933h9.145c.978 0 2.958-.298 5.904-.878 1.482-.253 2.782-.922 3.884-2.008 1.118-1.086 1.807-2.32 2.07-3.72.391-2.067-.025-3.659-1.252-4.76-1.223-1.115-3.81-1.666-7.77-1.666h-9.52Z"/><use xlink:href="#a" fill="#1e2b5c" data-text="M" transform="matrix(21.148 0 0 -21.148 167.359 104.128)"/><use xlink:href="#b" fill="#1e2b5c" data-text="A" transform="matrix(21.148 0 0 -21.148 189.77 104.128)"/><use xlink:href="#c" fill="#1e2b5c" data-text="R" transform="matrix(21.148 0 0 -21.148 207.895 104.128)"/><use xlink:href="#d" fill="#1e2b5c" data-text="K" transform="matrix(21.148 0 0 -21.148 224.308 104.128)"/><use xlink:href="#e" fill="#1e2b5c" data-text="E" transform="matrix(21.148 0 0 -21.148 242.497 104.128)"/><use xlink:href="#f" fill="#1e2b5c" data-text="T" transform="matrix(21.148 0 0 -21.148 257.337 104.128)"/><path fill="#1e2b5c" fill-rule="evenodd" d="m544.495 111.784-6.668 16.983h15.512l2.186-5.688-8.061.07 4.53-11.373ZM553.562 128.795l8.338.062 2.576-2.923-3.086-1.186 9.81-.081.47 4.23 7.41-.063-2.125-17.014-8.716-.03Zm16.96-9.72-2.35 2.735 2.766.062ZM579.924 111.758l2.27 17.034 8.672.156 10.285-17.123h-7.785l-5.054 8.11-.865-8.137ZM592.343 128.809l15.002-16.975 4.886-.073 4.482 9.543-5.653 7.568-.39.045-.513-4.217-9.677-.054 3.135 1.244-2.622 2.892Zm17.2-9.695-2.228 2.658 2.493.061Z"/><path fill="#4bb748" fill-rule="evenodd" d="m610.683 108.465 6.03 12.839-9.854 13.194 11.221.093 3.202-4.103 1.896 4.072 11.222-.124-6.434-13.119 9.895-12.942-11.305.082-2.714 3.536-1.808-3.495Z"/><use xlink:href="#g" fill="#1e2b5c" data-text="b" transform="matrix(12.063 0 0 -12.063 527.222 117.69)"/><use xlink:href="#h" fill="#1e2b5c" data-text="y" transform="matrix(12.063 0 0 -12.063 534.885 117.69)"/><use xlink:href="#i" fill="#4bb748" data-text="M" transform="matrix(89.254 0 15.37846 -89.254 161.614 78.256)"/><use xlink:href="#j" fill="#4bb748" data-text="i" transform="matrix(89.254 0 15.37846 -89.254 232.15 78.256)"/><use xlink:href="#k" fill="#4bb748" data-text="n" transform="matrix(89.254 0 15.37846 -89.254 253.136 78.256)"/><use xlink:href="#j" fill="#4bb748" data-text="i" transform="matrix(89.254 0 15.37846 -89.254 303.842 78.256)"/><path fill="#4bb748" fill-rule="evenodd" d="M627.849 9.874h28.948c-17.423 11.654-34.568 23.259-50.015 34.627l30.381 50.316h-35.587l-17.749-32.434c-13.43 11.224-24.333 22.1-31.217 32.434h-42.299c16.16-17.374 37.266-34.685 62.86-51.908L555.094 9.874h30.78l10.852 17.973c9.85-6.003 20.229-11.994 31.123-17.973"/><path fill="#1e2b5c" fill-rule="evenodd" d="M19.47 59.292h113.15v8.232h-6.004V124.1c0 10.651-8.714 19.365-19.364 19.365H44.124c-10.651 0-19.365-8.714-19.365-19.365V67.524H19.47Z"/><path fill="#fff" fill-rule="evenodd" d="M32.076 67.331h87.7v23.142h-87.7Z"/><path fill="#4bb748" fill-rule="evenodd" d="M50.58 90.473H39.686a2 2 0 0 1-.007-.167V75.577a2.255 2.255 0 0 1 2.249-2.249h6.41a2.255 2.255 0 0 1 2.248 2.249v14.73q0 .082-.006.166M64.43 90.473H53.536a2 2 0 0 1-.006-.167V75.577a2.255 2.255 0 0 1 2.248-2.249h6.41a2.255 2.255 0 0 1 2.248 2.249v14.73q0 .082-.006.166M77.381 90.473H66.487q-.001-.082.004-.167l.709-11.515c.076-1.237 1.15-2.249 2.387-2.249h6.409a2.096 2.096 0 0 1 2.11 2.25l-.708 11.514a2 2 0 0 1-.017.167M94.567 90.473H82.678l2.36-8.546c.372-1.348 1.78-2.451 3.128-2.451h6.987c1.348 0 2.146 1.103 1.774 2.451ZM110.735 90.473H98.837l.015-.05 3.939-12.562c.423-1.35 1.873-2.453 3.222-2.453h6.992c1.35 0 2.108 1.104 1.684 2.453l-3.938 12.562Z"/><path fill="#fff" fill-rule="evenodd" d="M32.076 96.633h87.7v27.696h-87.7Z"/><path fill="#4bb748" fill-rule="evenodd" d="M62.42 134.069h26.97c.733 0 1.333.6 1.333 1.333s-.6 1.333-1.333 1.333H62.42c-.734 0-1.333-.6-1.333-1.333s.6-1.333 1.333-1.333M37.563 118.827h12.05v-7.447a4.365 4.365 0 0 0-4.353-4.353h-3.345a4.365 4.365 0 0 0-4.352 4.353ZM52.189 118.74h10.949v-13.627a2.62 2.62 0 0 0-2.612-2.611H54.8a2.62 2.62 0 0 0-2.611 2.611ZM72.292 118.74H83.24v-13.627a2.62 2.62 0 0 0-2.612-2.611h-5.726a2.62 2.62 0 0 0-2.611 2.611ZM85.885 118.827h12.05v-7.447a4.365 4.365 0 0 0-4.352-4.353h-3.346a4.365 4.365 0 0 0-4.352 4.353ZM100.36 118.827h12.05v-7.447a4.365 4.365 0 0 0-4.353-4.353h-3.345a4.365 4.365 0 0 0-4.353 4.353ZM55.71 1h40.595c7.182 0 12.096 5.942 13.058 13.058l3.483 25.744c.41 3.034-2.506 5.567-5.567 5.567H44.737c-3.061 0-5.977-2.533-5.567-5.567l3.483-25.744C43.615 6.941 48.529 1 55.71 1"/><use xlink:href="#l" fill="#fff" data-text="2" transform="matrix(36.686 0 0 -36.686 47.628 35.663)"/><use xlink:href="#m" fill="#fff" data-text="4" transform="matrix(36.686 0 0 -36.686 69.587 35.663)"/><use xlink:href="#n" fill="#fff" data-text="h" transform="matrix(22.111 0 0 -22.111 91.547 35.663)"/><path fill="#0064a5" fill-rule="evenodd" d="M29.483 24.874a5.731 5.731 0 1 1-5.571 7.082h-.348c-8.785 0-15.972 7.187-15.972 15.972v49.407a5.05 5.05 0 1 1-3.567.183V49.261c0-11.178 8.987-20.358 20.092-20.674a5.73 5.73 0 0 1 5.366-3.713"/><path fill="#fff" fill-rule="evenodd" d="M29.483 28.424a2.181 2.181 0 1 1 0 4.363 2.181 2.181 0 0 1 0-4.363M6.05 99.964a2.181 2.181 0 1 1 0 4.363 2.181 2.181 0 0 1 0-4.363"/><path fill="#0064a5" fill-rule="evenodd" d="M13.175 100.854h5.782v3.567h-5.782ZM20.995 100.854h3.684v3.567h-3.684ZM121.793 24.874a5.731 5.731 0 1 0 5.571 7.082h.349c8.784 0 15.971 7.187 15.971 15.972v49.407a5.05 5.05 0 1 0 3.567.183V49.261c0-11.178-8.987-20.358-20.092-20.674a5.73 5.73 0 0 0-5.366-3.713"/><path fill="#fff" fill-rule="evenodd" d="M121.793 28.424a2.181 2.181 0 1 0 0 4.363 2.181 2.181 0 0 0 0-4.363M145.225 99.964a2.181 2.181 0 1 0 0 4.363 2.181 2.181 0 0 0 0-4.363"/><path fill="#0064a5" fill-rule="evenodd" d="M138.101 100.854h-5.782v3.567h5.782ZM130.281 100.854h-3.684v3.567h3.684Z"/></svg>