<svg xmlns="http://www.w3.org/2000/svg" xmlns:xlink="http://www.w3.org/1999/xlink" width="657.798" height="449.081" viewBox="0 0 657.798 449.081"><defs><path id="a" d="M.896 0H.714L.672.309.664.382.657.469A1 1 0 0 0 .631.356L.624.335.527 0h-.13L.3.335.294.356a1 1 0 0 0-.027.113 2 2 0 0 0-.016-.16L.209 0H.028l.11.715h.193L.439.346.443.334A1 1 0 0 0 .462.249q.002.02.007.042l.015.056.109.368h.193z"/><path id="b" d="M.265.267h.194L.386.503.377.538.362.599.349.549.337.503zM-.008 0l.247.715h.244L.73 0H.536L.5.128H.223L.186 0z"/><path id="c" d="M.076 0v.715H.28A1 1 0 0 0 .447.704.2.2 0 0 0 .528.667.2.2 0 0 0 .587.593.24.24 0 0 0 .608.492q0-.083-.041-.135A.2.2 0 0 0 .448.288L.643 0h-.22L.259.28V0zm.183.377h.036q.063 0 .092.022.029.02.029.067 0 .054-.027.076Q.362.565.298.565H.259z"/><path id="d" d="M.076 0v.715h.193V.39l.226.325h.227L.458.366.745 0H.502L.269.321V0z"/><path id="e" d="M.076 0v.715h.438V.558H.266V.434H.5V.281H.266V.16h.248V0z"/><path id="f" d="M.179 0v.546h-.16v.169h.515V.546h-.16V0z"/><path id="g" d="M.219.246q0-.057.03-.091A.1.1 0 0 1 .332.122q.054 0 .084.033a.13.13 0 0 1 .03.091q0 .057-.03.091A.11.11 0 0 1 .332.37.1.1 0 0 1 .249.337a.13.13 0 0 1-.03-.091M.065.757h.166V.499L.23.447.226.411a.2.2 0 0 0 .07.076q.039.022.102.022a.2.2 0 0 0 .16-.072.3.3 0 0 0 .061-.191.28.28 0 0 0-.062-.193.2.2 0 0 0-.165-.072A.2.2 0 0 0 .3.006.2.2 0 0 0 .225.08V0h-.16z"/><path id="h" d="m.037-.218.139.293-.199.418H.17L.239.315.254.273.262.237l.009.037.014.041.07.178h.186l-.31-.711z"/><path id="i" d="M.071 0v.716h.217L.417.228l.126.488h.218V0H.627v.564L.485 0H.346l-.14.564L.205 0z"/><path id="j" d="M.072.589v.127h.137V.589zm0-.589v.519h.137V0z"/><path id="k" d="M.544 0H.407v.265a.4.4 0 0 1-.009.108.07.07 0 0 1-.029.038.08.08 0 0 1-.048.014.1.1 0 0 1-.064-.019.1.1 0 0 1-.039-.052.4.4 0 0 1-.011-.119V0H.07v.519h.127V.443A.21.21 0 0 0 .369.53Q.414.53.452.514A.13.13 0 0 0 .509.472.2.2 0 0 0 .536.414.4.4 0 0 0 .544.322z"/><path id="l" d="M.324.151.37.154l.027.001h.152L.524 0H.002L.3.341a1 1 0 0 1 .073.097q.02.035.02.064a.07.07 0 0 1-.021.053.08.08 0 0 1-.055.02.08.08 0 0 1-.068-.03.13.13 0 0 1-.026-.083H.055a.3.3 0 0 0 .08.192.27.27 0 0 0 .191.068q.11 0 .178-.06A.2.2 0 0 0 .572.507.26.26 0 0 0 .537.378a.6.6 0 0 0-.119-.14z"/><path id="m" d="m.327.299.041.22q.004.022.016.07l.002.007a.4.4 0 0 0-.054-.08L.161.299zM.28 0l.025.162h-.306l.022.137.324.409h.208L.488.299h.093L.56.162H.466L.441 0z"/><path id="n" d="m.005 0 .121.757h.171L.253.491A1 1 0 0 0 .238.416a.3.3 0 0 0 .08.071.2.2 0 0 0 .088.022.17.17 0 0 0 .119-.041.16.16 0 0 0 .042-.116A1 1 0 0 0 .558.268L.557.259.516 0H.342l.041.261.003.022.001.019A.07.07 0 0 1 .37.35Q.353.368.32.367A.09.09 0 0 1 .249.334.2.2 0 0 1 .212.23L.177 0z"/></defs><path fill="#1e2b5c" d="M235.106 286.776h38.27l4.759 52.165 24.48-52.165h38.116l-16.187 85.731h-23.75l12.34-65.356-30.666 56.727H260.95l-5.942-56.727-12.34 65.356h-23.75Zm115.243 0h77.677l-3.46 18.32h-48.548l-2.577 13.65h45.006l-3.301 17.48H370.14l-3.187 16.884h49.99l-3.662 19.397h-79.12Zm70.1 85.731 16.188-85.731h48.374c8.965 0 15.7.698 20.156 2.114 4.482 1.398 7.816 4.012 10.008 7.804 2.189 3.811 2.754 8.46 1.721 13.93-.896 4.749-2.788 8.86-5.67 12.312-2.864 3.473-6.453 6.266-10.776 8.422-2.726 1.357-6.353 2.494-10.83 3.392 3.255 1.058 5.574 2.096 6.949 3.153.918.699 2.184 2.215 3.785 4.51 1.578 2.295 2.599 4.072 3.039 5.329l2.182 5.73c-8.008 6.338-15.547 12.683-22.607 19.035h-2.949l-10.569-26.142c-1.327-3.393-2.662-5.588-4.001-6.606-1.85-1.317-4.11-1.976-6.756-1.976h-2.558l-6.557 34.724Zm38.738-50.888h12.268c1.313 0 3.968-.4 7.92-1.178 1.988-.339 3.733-1.237 5.21-2.693 1.5-1.457 2.425-3.114 2.78-4.99.523-2.774-.036-4.909-1.681-6.385-1.642-1.497-5.111-2.236-10.425-2.236h-12.771Z"/><use xlink:href="#a" fill="#1e2b5c" data-text="M" transform="matrix(28.371 0 0 -28.371 .206 407.215)"/><use xlink:href="#b" fill="#1e2b5c" data-text="A" transform="matrix(28.371 0 0 -28.371 30.27 407.215)"/><use xlink:href="#c" fill="#1e2b5c" data-text="R" transform="matrix(28.371 0 0 -28.371 54.586 407.215)"/><use xlink:href="#d" fill="#1e2b5c" data-text="K" transform="matrix(28.371 0 0 -28.371 76.603 407.215)"/><use xlink:href="#e" fill="#1e2b5c" data-text="E" transform="matrix(28.371 0 0 -28.371 101.003 407.215)"/><use xlink:href="#f" fill="#1e2b5c" data-text="T" transform="matrix(28.371 0 0 -28.371 120.912 407.215)"/><path fill="#1e2b5c" fill-rule="evenodd" d="m506.141 417.486-8.945 22.782h20.81l2.933-7.63-10.815.095 6.078-15.258ZM518.305 440.307l11.186.082 3.455-3.92-4.14-1.591 13.16-.11.631 5.676 9.94-.086-2.85-22.824-11.692-.042Zm22.751-13.041-3.151 3.67 3.711.082ZM553.67 417.45l3.044 22.853 11.635.208 13.798-22.97h-10.444l-6.78 10.878-1.161-10.915ZM570.331 440.325l20.126-22.773 6.554-.097 6.013 12.801-7.584 10.153-.523.061-.69-5.657-12.981-.073 4.206 1.669-3.517 3.88Zm23.073-13.006-2.988 3.565 3.345.082Z"/><path fill="#4bb748" fill-rule="evenodd" d="m594.934 413.034 8.09 17.222-13.22 17.7 15.053.125 4.296-5.504 2.544 5.463 15.054-.167-8.632-17.598 13.275-17.363-15.166.11-3.64 4.743-2.427-4.687Z"/><use xlink:href="#g" fill="#1e2b5c" data-text="b" transform="matrix(16.183 0 0 -16.183 482.968 425.41)"/><use xlink:href="#h" fill="#1e2b5c" data-text="y" transform="matrix(16.183 0 0 -16.183 493.248 425.41)"/><use xlink:href="#i" fill="#4bb748" data-text="M" transform="matrix(119.737 0 20.63068 -119.737 -7.501 372.507)"/><use xlink:href="#j" fill="#4bb748" data-text="i" transform="matrix(119.737 0 20.63068 -119.737 87.126 372.507)"/><use xlink:href="#k" fill="#4bb748" data-text="n" transform="matrix(119.737 0 20.63068 -119.737 115.279 372.507)"/><use xlink:href="#j" fill="#4bb748" data-text="i" transform="matrix(119.737 0 20.63068 -119.737 183.304 372.507)"/><path fill="#4bb748" fill-rule="evenodd" d="M617.962 280.772h38.836c-23.374 15.634-46.375 31.203-67.097 46.453l40.757 67.499h-47.742l-23.81-43.51c-18.016 15.057-32.643 29.648-41.878 43.51h-56.745c21.68-23.308 49.994-46.53 84.327-69.635l-24.25-44.317h41.292l14.558 24.11c13.214-8.053 27.138-16.09 41.752-24.11"/><path fill="#1e2b5c" fill-rule="evenodd" d="M239.125 94.169h180.849v13.157h-9.595v90.428c0 17.024-13.928 30.951-30.951 30.951h-100.9c-17.023 0-30.95-13.927-30.95-30.95v-90.429h-8.453Z"/><path fill="#fff" fill-rule="evenodd" d="M259.272 107.018h140.174v36.988H259.272Z"/><path fill="#4bb748" fill-rule="evenodd" d="M288.848 144.006h-17.413a4 4 0 0 1-.01-.266v-23.542a3.605 3.605 0 0 1 3.594-3.594h10.245a3.605 3.605 0 0 1 3.594 3.594v23.542q0 .135-.01.266M310.986 144.006h-17.413a4 4 0 0 1-.01-.266v-23.542a3.605 3.605 0 0 1 3.594-3.594h10.244a3.605 3.605 0 0 1 3.594 3.594v23.542q0 .135-.01.266M331.685 144.006h-17.413a4 4 0 0 1 .007-.266l1.132-18.405c.122-1.977 1.84-3.594 3.816-3.594h10.244c1.977 0 3.495 1.617 3.373 3.594l-1.132 18.405q-.009.135-.027.266M359.154 144.006h-19.002l3.77-13.658c.596-2.155 2.845-3.918 5-3.918h11.167c2.155 0 3.432 1.763 2.837 3.918ZM384.994 144.006H365.98l.024-.079 6.295-20.078c.677-2.157 2.994-3.921 5.151-3.921h11.176c2.156 0 3.367 1.764 2.691 3.921l-6.295 20.078Z"/><path fill="#fff" fill-rule="evenodd" d="M259.272 153.852h140.174v44.267H259.272Z"/><path fill="#4bb748" fill-rule="evenodd" d="M307.771 213.687h43.108c1.172 0 2.13.958 2.13 2.13s-.958 2.13-2.13 2.13h-43.108a2.136 2.136 0 0 1-2.13-2.13c0-1.172.958-2.13 2.13-2.13M268.042 189.326h19.26v-11.903c0-3.827-3.13-6.957-6.956-6.957H275c-3.826 0-6.957 3.13-6.957 6.957ZM291.42 189.187h17.5v-21.78a4.186 4.186 0 0 0-4.175-4.175h-9.152a4.186 4.186 0 0 0-4.174 4.174ZM323.55 189.187h17.5v-21.78a4.186 4.186 0 0 0-4.173-4.175h-9.152a4.186 4.186 0 0 0-4.174 4.174ZM345.277 189.326h19.26v-11.903c0-3.827-3.13-6.957-6.956-6.957h-5.347c-3.827 0-6.957 3.13-6.957 6.957ZM368.412 189.326h19.26v-11.903c0-3.827-3.13-6.957-6.956-6.957h-5.347c-3.827 0-6.957 3.13-6.957 6.957ZM297.048 1h64.884c11.48 0 19.333 9.497 20.871 20.87l5.565 41.149c.656 4.848-4.004 8.896-8.896 8.896h-99.963c-4.892 0-9.553-4.047-8.897-8.896l5.565-41.148C277.718 10.495 285.57 1 297.049 1"/><use xlink:href="#l" fill="#fff" data-text="2" transform="matrix(58.636 0 0 -58.636 284.129 56.403)"/><use xlink:href="#m" fill="#fff" data-text="4" transform="matrix(58.636 0 0 -58.636 319.229 56.403)"/><use xlink:href="#n" fill="#fff" data-text="h" transform="matrix(35.341 0 0 -35.341 354.329 56.403)"/><path fill="#0064a5" fill-rule="evenodd" d="M255.128 39.158a9.16 9.16 0 0 1 9.16 9.161 9.16 9.16 0 0 1-9.16 9.16c-4.316 0-7.934-2.984-8.904-7.001h-.557c-14.04 0-25.528 11.487-25.528 25.527v78.969a8.072 8.072 0 1 1-10.536 7.69 8.07 8.07 0 0 1 4.835-7.397v-77.13c0-17.866 14.364-32.54 32.114-33.044a9.16 9.16 0 0 1 8.576-5.935"/><path fill="#fff" fill-rule="evenodd" d="M255.128 44.833a3.486 3.486 0 1 1 0 6.972 3.486 3.486 0 0 1 0-6.972M217.676 159.177a3.486 3.486 0 1 1 0 6.973 3.486 3.486 0 0 1 0-6.973"/><path fill="#0064a5" fill-rule="evenodd" d="M229.062 160.6h9.243v5.7h-9.243ZM241.561 160.6h5.889v5.7h-5.889ZM402.67 39.158a9.16 9.16 0 0 0-9.16 9.161 9.16 9.16 0 0 0 18.064 2.159h.557c14.04 0 25.528 11.487 25.528 25.527v78.969a8.073 8.073 0 1 0 5.7.293v-77.13c0-17.866-14.363-32.54-32.113-33.044a9.16 9.16 0 0 0-8.576-5.935"/><path fill="#fff" fill-rule="evenodd" d="M402.67 44.833a3.486 3.486 0 1 0 0 6.972 3.486 3.486 0 0 0 0-6.972M440.122 159.177a3.487 3.487 0 1 0 0 6.973 3.487 3.487 0 0 0 0-6.973"/><path fill="#0064a5" fill-rule="evenodd" d="M428.736 160.6h-9.243v5.7h9.243ZM416.237 160.6h-5.889v5.7h5.889Z"/></svg>